<svg width="10" height="10" viewBox="0 0 10 10" fill="none" xmlns="http://www.w3.org/2000/svg">
<path d="M5 7.38467L2.64133 5.02533L3.11267 4.546L4.66667 6.1V0.333332H5.33333V6.1L6.88667 4.54667L7.35867 5.02533L5 7.38467ZM1.41 9.66667C1.10333 9.66667 0.847332 9.564 0.641999 9.35867C0.436221 9.15289 0.333332 8.89667 0.333332 8.59V6.97467H0.999999V8.59C0.999999 8.69222 1.04267 8.78622 1.128 8.872C1.21378 8.95733 1.30778 9 1.41 9H8.59C8.69222 9 8.78622 8.95733 8.872 8.872C8.95733 8.78622 9 8.69222 9 8.59V6.97467H9.66667V8.59C9.66667 8.89667 9.564 9.15267 9.35867 9.358C9.15289 9.56378 8.89667 9.66667 8.59 9.66667H1.41Z" fill="#424242"/>
</svg>
