<svg width="16" height="16" viewBox="0 0 16 16" fill="none" xmlns="http://www.w3.org/2000/svg">
<path d="M7.17871 0L4.78805 1.06933C4.78805 1.06933 8.87205 2.88267 9.35605 3.106C9.83605 3.32933 10.5187 3.73733 9.73271 4.192C8.94605 4.64667 8.11738 4.51 7.56005 4.252C7.00338 3.996 2.88538 2.08067 2.88538 2.08067L0.444048 3.18467C0.444048 3.18467 4.71071 5.14133 5.37738 5.46267C6.04605 5.784 8.54605 6.652 11.0307 5.464C13.5154 4.27667 13.2047 3.746 13.2094 3.648C13.2134 3.54933 13.1854 3.026 12.788 2.67C12.3887 2.314 11.2027 1.75333 10.7034 1.51667C10.2034 1.27733 7.18005 0 7.18005 0H7.17871ZM0.274048 3.53267V12.3427L2.21005 13.2773V7.96867L3.26671 13.702L4.98671 14.5307L6.09338 9.76133V14.9787L8.03738 15.8987V7.09533L5.08605 5.752L4.15071 9.94933L3.20938 4.884L0.274048 3.53267ZM11.4474 5.60933L8.36471 7.15267L8.37271 16L15.726 12.5167L15.7094 10.108L11.4474 12.0547V5.60933Z" fill="#c5c5c5"/>
</svg>
