<svg xmlns="http://www.w3.org/2000/svg" xmlns:xlink="http://www.w3.org/1999/xlink" version="1.1"  width="400px" height="400px" viewBox="130 40 290 200">
<polygon fill="#FBBD16" points="208.096,234.496 208.096,158.167 222.729,240.603 246.553,252.477 261.867,183.949 261.867,258.923 288.753,272.151 288.753,145.616 247.914,126.278 234.982,186.663 221.937,113.84 181.323,94.391 181.323,221.04 "/>
<polygon fill="#452E7F" points="292.496,145.583 335.152,123.418 335.152,215.238 394.142,184.709 394.369,219.31 292.611,272.796"/>
<path fill="#962444" d="M275.298,12.158l-30.163,26.669c0,0,58.851,30.25,66,33.825c7.15,3.574,17.325,10.449,6.325,20.625  c-11,10.175-23.1,8.8-31.35,4.675S216.81,63.027,216.81,63.027l-31.074,26.399c0,0,59.949,30.525,69.85,35.75  c9.9,5.226,46.75,18.15,81.675-9.075c34.925-27.225,29.976-37.125,29.976-39.05s-0.825-12.1-6.875-18.425  c-6.051-6.325-23.65-15.4-31.075-19.25S275.298,12.158,275.298,12.158z"/>
</svg>